<?xml version="1.0" encoding="UTF-8" standalone="no"?>
<!DOCTYPE svg PUBLIC "-//W3C//DTD SVG 1.1//EN"
 "http://www.w3.org/Graphics/SVG/1.1/DTD/svg11.dtd">
<!-- Generated by graphviz version 2.43.0 (0)
 -->
<!-- Title: base64.h Pages: 1 -->
<svg width="123pt" height="140pt"
 viewBox="0.00 0.00 122.50 140.00" xmlns="http://www.w3.org/2000/svg" xmlns:xlink="http://www.w3.org/1999/xlink">
<g id="graph0" class="graph" transform="scale(1 1) rotate(0) translate(4 136)">
<title>base64.h</title>
<polygon fill="white" stroke="transparent" points="-4,4 -4,-136 118.5,-136 118.5,4 -4,4"/>
<!-- Node1 -->
<g id="node1" class="node">
<title>Node1</title>
<g id="a_node1"><a xlink:title=" ">
<polygon fill="#bfbfbf" stroke="black" points="35,-112.5 35,-131.5 91,-131.5 91,-112.5 35,-112.5"/>
<text text-anchor="middle" x="63" y="-119.5" font-family="Helvetica,sans-Serif" font-size="10.00">base64.h</text>
</a>
</g>
</g>
<!-- Node2 -->
<g id="node2" class="node">
<title>Node2</title>
<g id="a_node2"><a xlink:href="lib__server_8h.html" target="_top" xlink:title=" ">
<polygon fill="white" stroke="black" points="0,-56.5 0,-75.5 66,-75.5 66,-56.5 0,-56.5"/>
<text text-anchor="middle" x="33" y="-63.5" font-family="Helvetica,sans-Serif" font-size="10.00">lib_server.h</text>
</a>
</g>
</g>
<!-- Node1&#45;&gt;Node2 -->
<g id="edge1" class="edge">
<title>Node1&#45;&gt;Node2</title>
<path fill="none" stroke="midnightblue" d="M53.15,-103.27C48.03,-94.05 41.98,-83.17 37.86,-75.75"/>
<polygon fill="midnightblue" stroke="midnightblue" points="50.13,-105.04 58.05,-112.08 56.25,-101.64 50.13,-105.04"/>
</g>
<!-- Node4 -->
<g id="node4" class="node">
<title>Node4</title>
<g id="a_node4"><a xlink:href="test_8c.html" target="_top" xlink:title=" ">
<polygon fill="white" stroke="black" points="73.5,-0.5 73.5,-19.5 114.5,-19.5 114.5,-0.5 73.5,-0.5"/>
<text text-anchor="middle" x="94" y="-7.5" font-family="Helvetica,sans-Serif" font-size="10.00">test.c</text>
</a>
</g>
</g>
<!-- Node1&#45;&gt;Node4 -->
<g id="edge4" class="edge">
<title>Node1&#45;&gt;Node4</title>
<path fill="none" stroke="midnightblue" d="M68.16,-102.67C74.94,-78.62 86.56,-37.39 91.58,-19.59"/>
<polygon fill="midnightblue" stroke="midnightblue" points="64.78,-101.79 65.43,-112.37 71.51,-103.69 64.78,-101.79"/>
</g>
<!-- Node3 -->
<g id="node3" class="node">
<title>Node3</title>
<g id="a_node3"><a xlink:href="server_8c.html" target="_top" xlink:title=" ">
<polygon fill="white" stroke="black" points="4.5,-0.5 4.5,-19.5 55.5,-19.5 55.5,-0.5 4.5,-0.5"/>
<text text-anchor="middle" x="30" y="-7.5" font-family="Helvetica,sans-Serif" font-size="10.00">server.c</text>
</a>
</g>
</g>
<!-- Node2&#45;&gt;Node3 -->
<g id="edge2" class="edge">
<title>Node2&#45;&gt;Node3</title>
<path fill="none" stroke="midnightblue" d="M31.93,-45.8C31.44,-36.91 30.88,-26.78 30.49,-19.75"/>
<polygon fill="midnightblue" stroke="midnightblue" points="28.46,-46.29 32.5,-56.08 35.44,-45.9 28.46,-46.29"/>
</g>
<!-- Node2&#45;&gt;Node4 -->
<g id="edge3" class="edge">
<title>Node2&#45;&gt;Node4</title>
<path fill="none" stroke="midnightblue" d="M50.47,-49.54C61.34,-39.91 74.94,-27.87 84.02,-19.83"/>
<polygon fill="midnightblue" stroke="midnightblue" points="47.97,-47.07 42.8,-56.32 52.61,-52.32 47.97,-47.07"/>
</g>
</g>
</svg>
