<?xml version="1.0" encoding="UTF-8" standalone="no"?>
<!DOCTYPE svg PUBLIC "-//W3C//DTD SVG 1.1//EN"
 "http://www.w3.org/Graphics/SVG/1.1/DTD/svg11.dtd">
<!-- Generated by graphviz version 2.43.0 (0)
 -->
<!-- Title: server.c Pages: 1 -->
<svg width="679pt" height="196pt"
 viewBox="0.00 0.00 678.50 196.00" xmlns="http://www.w3.org/2000/svg" xmlns:xlink="http://www.w3.org/1999/xlink">
<g id="graph0" class="graph" transform="scale(1 1) rotate(0) translate(4 192)">
<title>server.c</title>
<polygon fill="white" stroke="transparent" points="-4,4 -4,-192 674.5,-192 674.5,4 -4,4"/>
<!-- Node1 -->
<g id="node1" class="node">
<title>Node1</title>
<g id="a_node1"><a xlink:title=" ">
<polygon fill="#bfbfbf" stroke="black" points="321,-168.5 321,-187.5 372,-187.5 372,-168.5 321,-168.5"/>
<text text-anchor="middle" x="346.5" y="-175.5" font-family="Helvetica,sans-Serif" font-size="10.00">server.c</text>
</a>
</g>
</g>
<!-- Node2 -->
<g id="node2" class="node">
<title>Node2</title>
<g id="a_node2"><a xlink:title=" ">
<polygon fill="white" stroke="#bfbfbf" points="0,-112.5 0,-131.5 73,-131.5 73,-112.5 0,-112.5"/>
<text text-anchor="middle" x="36.5" y="-119.5" font-family="Helvetica,sans-Serif" font-size="10.00">sys/socket.h</text>
</a>
</g>
</g>
<!-- Node1&#45;&gt;Node2 -->
<g id="edge1" class="edge">
<title>Node1&#45;&gt;Node2</title>
<path fill="none" stroke="midnightblue" d="M320.87,-172.9C275.14,-165.54 176.21,-149.36 83.17,-132.27"/>
<polygon fill="midnightblue" stroke="midnightblue" points="83.79,-128.83 73.32,-130.45 82.52,-135.71 83.79,-128.83"/>
</g>
<!-- Node3 -->
<g id="node3" class="node">
<title>Node3</title>
<g id="a_node3"><a xlink:title=" ">
<polygon fill="white" stroke="#bfbfbf" points="91,-112.5 91,-131.5 156,-131.5 156,-112.5 91,-112.5"/>
<text text-anchor="middle" x="123.5" y="-119.5" font-family="Helvetica,sans-Serif" font-size="10.00">netinet/in.h</text>
</a>
</g>
</g>
<!-- Node1&#45;&gt;Node3 -->
<g id="edge2" class="edge">
<title>Node1&#45;&gt;Node3</title>
<path fill="none" stroke="midnightblue" d="M320.92,-170.81C283.16,-161.66 212.05,-144.44 166.27,-133.36"/>
<polygon fill="midnightblue" stroke="midnightblue" points="166.89,-129.91 156.35,-130.95 165.24,-136.71 166.89,-129.91"/>
</g>
<!-- Node4 -->
<g id="node4" class="node">
<title>Node4</title>
<g id="a_node4"><a xlink:title=" ">
<polygon fill="white" stroke="#bfbfbf" points="174.5,-112.5 174.5,-131.5 236.5,-131.5 236.5,-112.5 174.5,-112.5"/>
<text text-anchor="middle" x="205.5" y="-119.5" font-family="Helvetica,sans-Serif" font-size="10.00">arpa/inet.h</text>
</a>
</g>
</g>
<!-- Node1&#45;&gt;Node4 -->
<g id="edge3" class="edge">
<title>Node1&#45;&gt;Node4</title>
<path fill="none" stroke="midnightblue" d="M324.16,-168.44C300.75,-159.48 263.76,-145.31 237.31,-135.18"/>
<polygon fill="midnightblue" stroke="midnightblue" points="238.33,-131.82 227.74,-131.52 235.82,-138.36 238.33,-131.82"/>
</g>
<!-- Node5 -->
<g id="node5" class="node">
<title>Node5</title>
<g id="a_node5"><a xlink:title=" ">
<polygon fill="white" stroke="#bfbfbf" points="254.5,-112.5 254.5,-131.5 302.5,-131.5 302.5,-112.5 254.5,-112.5"/>
<text text-anchor="middle" x="278.5" y="-119.5" font-family="Helvetica,sans-Serif" font-size="10.00">stdlib.h</text>
</a>
</g>
</g>
<!-- Node1&#45;&gt;Node5 -->
<g id="edge4" class="edge">
<title>Node1&#45;&gt;Node5</title>
<path fill="none" stroke="midnightblue" d="M335.57,-168.32C325.33,-160.18 309.78,-147.84 297.5,-138.09"/>
<polygon fill="midnightblue" stroke="midnightblue" points="299.63,-135.31 289.62,-131.83 295.28,-140.79 299.63,-135.31"/>
</g>
<!-- Node6 -->
<g id="node6" class="node">
<title>Node6</title>
<g id="a_node6"><a xlink:title=" ">
<polygon fill="white" stroke="#bfbfbf" points="321,-112.5 321,-131.5 372,-131.5 372,-112.5 321,-112.5"/>
<text text-anchor="middle" x="346.5" y="-119.5" font-family="Helvetica,sans-Serif" font-size="10.00">unistd.h</text>
</a>
</g>
</g>
<!-- Node1&#45;&gt;Node6 -->
<g id="edge5" class="edge">
<title>Node1&#45;&gt;Node6</title>
<path fill="none" stroke="midnightblue" d="M346.5,-168.08C346.5,-161.01 346.5,-150.86 346.5,-141.99"/>
<polygon fill="midnightblue" stroke="midnightblue" points="350,-141.75 346.5,-131.75 343,-141.75 350,-141.75"/>
</g>
<!-- Node7 -->
<g id="node7" class="node">
<title>Node7</title>
<g id="a_node7"><a xlink:title=" ">
<polygon fill="white" stroke="#bfbfbf" points="390.5,-112.5 390.5,-131.5 436.5,-131.5 436.5,-112.5 390.5,-112.5"/>
<text text-anchor="middle" x="413.5" y="-119.5" font-family="Helvetica,sans-Serif" font-size="10.00">stdio.h</text>
</a>
</g>
</g>
<!-- Node1&#45;&gt;Node7 -->
<g id="edge6" class="edge">
<title>Node1&#45;&gt;Node7</title>
<path fill="none" stroke="midnightblue" d="M357.26,-168.32C367.27,-160.26 382.39,-148.08 394.43,-138.37"/>
<polygon fill="midnightblue" stroke="midnightblue" points="396.95,-140.83 402.54,-131.83 392.56,-135.38 396.95,-140.83"/>
</g>
<!-- Node8 -->
<g id="node8" class="node">
<title>Node8</title>
<g id="a_node8"><a xlink:href="string_8h.html" target="_top" xlink:title=" ">
<polygon fill="white" stroke="black" points="461,-56.5 461,-75.5 510,-75.5 510,-56.5 461,-56.5"/>
<text text-anchor="middle" x="485.5" y="-63.5" font-family="Helvetica,sans-Serif" font-size="10.00">string.h</text>
</a>
</g>
</g>
<!-- Node1&#45;&gt;Node8 -->
<g id="edge7" class="edge">
<title>Node1&#45;&gt;Node8</title>
<path fill="none" stroke="midnightblue" d="M372.01,-170.02C393.52,-163.13 424.12,-150.86 445.5,-132 460.21,-119.02 471.29,-99.31 478.01,-85"/>
<polygon fill="midnightblue" stroke="midnightblue" points="481.28,-86.27 482.13,-75.71 474.88,-83.43 481.28,-86.27"/>
</g>
<!-- Node11 -->
<g id="node11" class="node">
<title>Node11</title>
<g id="a_node11"><a xlink:title=" ">
<polygon fill="white" stroke="#bfbfbf" points="492.5,-112.5 492.5,-131.5 532.5,-131.5 532.5,-112.5 492.5,-112.5"/>
<text text-anchor="middle" x="512.5" y="-119.5" font-family="Helvetica,sans-Serif" font-size="10.00">poll.h</text>
</a>
</g>
</g>
<!-- Node1&#45;&gt;Node11 -->
<g id="edge10" class="edge">
<title>Node1&#45;&gt;Node11</title>
<path fill="none" stroke="midnightblue" d="M372.07,-168.68C401.95,-158.96 451.28,-142.91 482.82,-132.66"/>
<polygon fill="midnightblue" stroke="midnightblue" points="483.95,-135.97 492.38,-129.54 481.79,-129.31 483.95,-135.97"/>
</g>
<!-- Node12 -->
<g id="node12" class="node">
<title>Node12</title>
<g id="a_node12"><a xlink:href="lib__server_8h.html" target="_top" xlink:title=" ">
<polygon fill="white" stroke="black" points="550.5,-112.5 550.5,-131.5 616.5,-131.5 616.5,-112.5 550.5,-112.5"/>
<text text-anchor="middle" x="583.5" y="-119.5" font-family="Helvetica,sans-Serif" font-size="10.00">lib_server.h</text>
</a>
</g>
</g>
<!-- Node1&#45;&gt;Node12 -->
<g id="edge11" class="edge">
<title>Node1&#45;&gt;Node12</title>
<path fill="none" stroke="midnightblue" d="M372.31,-171.12C412.64,-161.93 491.02,-144.07 540.12,-132.88"/>
<polygon fill="midnightblue" stroke="midnightblue" points="541.16,-136.24 550.13,-130.6 539.6,-129.41 541.16,-136.24"/>
</g>
<!-- Node9 -->
<g id="node9" class="node">
<title>Node9</title>
<g id="a_node9"><a xlink:title=" ">
<polygon fill="white" stroke="#bfbfbf" points="572.5,-0.5 572.5,-19.5 624.5,-19.5 624.5,-0.5 572.5,-0.5"/>
<text text-anchor="middle" x="598.5" y="-7.5" font-family="Helvetica,sans-Serif" font-size="10.00">stddef.h</text>
</a>
</g>
</g>
<!-- Node8&#45;&gt;Node9 -->
<g id="edge8" class="edge">
<title>Node8&#45;&gt;Node9</title>
<path fill="none" stroke="midnightblue" d="M503.41,-56.44C521.75,-47.68 550.51,-33.94 571.59,-23.86"/>
<polygon fill="midnightblue" stroke="midnightblue" points="573.17,-26.99 580.68,-19.52 570.15,-20.67 573.17,-26.99"/>
</g>
<!-- Node10 -->
<g id="node10" class="node">
<title>Node10</title>
<g id="a_node10"><a xlink:title=" ">
<polygon fill="white" stroke="#bfbfbf" points="459.5,-0.5 459.5,-19.5 511.5,-19.5 511.5,-0.5 459.5,-0.5"/>
<text text-anchor="middle" x="485.5" y="-7.5" font-family="Helvetica,sans-Serif" font-size="10.00">stdarg.h</text>
</a>
</g>
</g>
<!-- Node8&#45;&gt;Node10 -->
<g id="edge9" class="edge">
<title>Node8&#45;&gt;Node10</title>
<path fill="none" stroke="midnightblue" d="M485.5,-56.08C485.5,-49.01 485.5,-38.86 485.5,-29.99"/>
<polygon fill="midnightblue" stroke="midnightblue" points="489,-29.75 485.5,-19.75 482,-29.75 489,-29.75"/>
</g>
<!-- Node12&#45;&gt;Node8 -->
<g id="edge13" class="edge">
<title>Node12&#45;&gt;Node8</title>
<path fill="none" stroke="midnightblue" d="M567.75,-112.32C552.18,-103.74 528.12,-90.49 510.04,-80.52"/>
<polygon fill="midnightblue" stroke="midnightblue" points="511.65,-77.42 501.21,-75.65 508.28,-83.55 511.65,-77.42"/>
</g>
<!-- Node13 -->
<g id="node13" class="node">
<title>Node13</title>
<g id="a_node13"><a xlink:title=" ">
<polygon fill="white" stroke="#bfbfbf" points="528.5,-56.5 528.5,-75.5 596.5,-75.5 596.5,-56.5 528.5,-56.5"/>
<text text-anchor="middle" x="562.5" y="-63.5" font-family="Helvetica,sans-Serif" font-size="10.00">sys/types.h</text>
</a>
</g>
</g>
<!-- Node12&#45;&gt;Node13 -->
<g id="edge12" class="edge">
<title>Node12&#45;&gt;Node13</title>
<path fill="none" stroke="midnightblue" d="M580.03,-112.08C577.19,-104.77 573.07,-94.18 569.54,-85.1"/>
<polygon fill="midnightblue" stroke="midnightblue" points="572.79,-83.8 565.9,-75.75 566.27,-86.34 572.79,-83.8"/>
</g>
<!-- Node14 -->
<g id="node14" class="node">
<title>Node14</title>
<g id="a_node14"><a xlink:href="base64_8h.html" target="_top" xlink:title=" ">
<polygon fill="white" stroke="black" points="614.5,-56.5 614.5,-75.5 670.5,-75.5 670.5,-56.5 614.5,-56.5"/>
<text text-anchor="middle" x="642.5" y="-63.5" font-family="Helvetica,sans-Serif" font-size="10.00">base64.h</text>
</a>
</g>
</g>
<!-- Node12&#45;&gt;Node14 -->
<g id="edge14" class="edge">
<title>Node12&#45;&gt;Node14</title>
<path fill="none" stroke="midnightblue" d="M592.98,-112.32C601.7,-104.34 614.84,-92.31 625.4,-82.65"/>
<polygon fill="midnightblue" stroke="midnightblue" points="627.83,-85.17 632.85,-75.83 623.11,-80 627.83,-85.17"/>
</g>
<!-- Node14&#45;&gt;Node9 -->
<g id="edge15" class="edge">
<title>Node14&#45;&gt;Node9</title>
<path fill="none" stroke="midnightblue" d="M635.23,-56.08C628.96,-48.38 619.71,-37.03 612.07,-27.65"/>
<polygon fill="midnightblue" stroke="midnightblue" points="614.66,-25.29 605.63,-19.75 609.23,-29.71 614.66,-25.29"/>
</g>
</g>
</svg>
