<?xml version="1.0" encoding="UTF-8" standalone="no"?>
<!DOCTYPE svg PUBLIC "-//W3C//DTD SVG 1.1//EN"
 "http://www.w3.org/Graphics/SVG/1.1/DTD/svg11.dtd">
<!-- Generated by graphviz version 2.43.0 (0)
 -->
<!-- Title: string.h Pages: 1 -->
<svg width="147pt" height="140pt"
 viewBox="0.00 0.00 147.00 140.00" xmlns="http://www.w3.org/2000/svg" xmlns:xlink="http://www.w3.org/1999/xlink">
<g id="graph0" class="graph" transform="scale(1 1) rotate(0) translate(4 136)">
<title>string.h</title>
<polygon fill="white" stroke="transparent" points="-4,4 -4,-136 143,-136 143,4 -4,4"/>
<!-- Node1 -->
<g id="node1" class="node">
<title>Node1</title>
<g id="a_node1"><a xlink:title=" ">
<polygon fill="#bfbfbf" stroke="black" points="48,-112.5 48,-131.5 97,-131.5 97,-112.5 48,-112.5"/>
<text text-anchor="middle" x="72.5" y="-119.5" font-family="Helvetica,sans-Serif" font-size="10.00">string.h</text>
</a>
</g>
</g>
<!-- Node2 -->
<g id="node2" class="node">
<title>Node2</title>
<g id="a_node2"><a xlink:href="lib__server_8h.html" target="_top" xlink:title=" ">
<polygon fill="white" stroke="black" points="39.5,-56.5 39.5,-75.5 105.5,-75.5 105.5,-56.5 39.5,-56.5"/>
<text text-anchor="middle" x="72.5" y="-63.5" font-family="Helvetica,sans-Serif" font-size="10.00">lib_server.h</text>
</a>
</g>
</g>
<!-- Node1&#45;&gt;Node2 -->
<g id="edge1" class="edge">
<title>Node1&#45;&gt;Node2</title>
<path fill="none" stroke="midnightblue" d="M72.5,-101.8C72.5,-92.91 72.5,-82.78 72.5,-75.75"/>
<polygon fill="midnightblue" stroke="midnightblue" points="69,-102.08 72.5,-112.08 76,-102.08 69,-102.08"/>
</g>
<!-- Node3 -->
<g id="node3" class="node">
<title>Node3</title>
<g id="a_node3"><a xlink:href="server_8c.html" target="_top" xlink:title=" ">
<polygon fill="white" stroke="black" points="0,-0.5 0,-19.5 51,-19.5 51,-0.5 0,-0.5"/>
<text text-anchor="middle" x="25.5" y="-7.5" font-family="Helvetica,sans-Serif" font-size="10.00">server.c</text>
</a>
</g>
</g>
<!-- Node1&#45;&gt;Node3 -->
<g id="edge4" class="edge">
<title>Node1&#45;&gt;Node3</title>
<path fill="none" stroke="midnightblue" d="M53.18,-105.67C44.69,-97.78 35.52,-87.42 30.5,-76 22.31,-57.35 23.16,-32.79 24.39,-19.85"/>
<polygon fill="midnightblue" stroke="midnightblue" points="51.12,-108.52 60.96,-112.44 55.71,-103.23 51.12,-108.52"/>
</g>
<!-- Node4 -->
<g id="node4" class="node">
<title>Node4</title>
<g id="a_node4"><a xlink:href="test_8c.html" target="_top" xlink:title=" ">
<polygon fill="white" stroke="black" points="98,-0.5 98,-19.5 139,-19.5 139,-0.5 98,-0.5"/>
<text text-anchor="middle" x="118.5" y="-7.5" font-family="Helvetica,sans-Serif" font-size="10.00">test.c</text>
</a>
</g>
</g>
<!-- Node1&#45;&gt;Node4 -->
<g id="edge5" class="edge">
<title>Node1&#45;&gt;Node4</title>
<path fill="none" stroke="midnightblue" d="M91.9,-105.71C100.41,-97.82 109.57,-87.46 114.5,-76 122.54,-57.31 121.25,-32.76 119.78,-19.84"/>
<polygon fill="midnightblue" stroke="midnightblue" points="89.36,-103.27 84.09,-112.46 93.94,-108.56 89.36,-103.27"/>
</g>
<!-- Node2&#45;&gt;Node3 -->
<g id="edge2" class="edge">
<title>Node2&#45;&gt;Node3</title>
<path fill="none" stroke="midnightblue" d="M58.08,-48.43C49.84,-38.97 39.85,-27.48 33.12,-19.75"/>
<polygon fill="midnightblue" stroke="midnightblue" points="55.53,-50.84 64.74,-56.08 60.81,-46.24 55.53,-50.84"/>
</g>
<!-- Node2&#45;&gt;Node4 -->
<g id="edge3" class="edge">
<title>Node2&#45;&gt;Node4</title>
<path fill="none" stroke="midnightblue" d="M86.61,-48.43C94.68,-38.97 104.46,-27.48 111.05,-19.75"/>
<polygon fill="midnightblue" stroke="midnightblue" points="83.92,-46.2 80.1,-56.08 89.25,-50.74 83.92,-46.2"/>
</g>
</g>
</svg>
